<svg xmlns="http://www.w3.org/2000/svg"  viewBox="0 0 50 50" width="50px" height="50px"><path d="M 47.919922 8.4101562 C 47.819922 8.4101562 47.709609 8.4307031 47.599609 8.4707031 L 34.669922 12.779297 C 34.269922 12.909297 34.000234 13.280937 33.990234 13.710938 C 33.800234 21.490938 30.559141 28.280625 26.369141 33.140625 C 26.839141 33.640625 27.339844 34.120547 27.839844 34.560547 C 32.209844 29.550547 35.600703 22.599219 35.970703 14.449219 L 46.699219 10.880859 C 45.159219 18.710859 38.040625 29.139453 28.890625 35.439453 C 29.450625 35.899453 30.019844 36.309922 30.589844 36.669922 C 40.619844 29.519922 48.079922 17.799766 48.919922 9.5097656 C 48.979922 8.8997656 48.489922 8.4101563 47.919922 8.4101562 z M 2.078125 8.4140625 C 1.510125 8.4140625 1.017125 8.9008125 1.078125 9.5078125 C 2.342125 21.977813 18.578609 42.202563 35.974609 42.976562 C 35.988609 42.977562 36.003578 42.978516 36.017578 42.978516 C 36.559578 42.978516 37 42.522609 37 41.974609 L 37 41.941406 C 37 41.439406 36.631812 41.004125 36.132812 40.953125 C 28.218812 40.155125 16.370766 28.788078 16.009766 13.705078 C 15.999766 13.283078 15.732031 12.909391 15.332031 12.775391 L 2.3984375 8.4667969 C 2.2914375 8.4307969 2.183125 8.4140625 2.078125 8.4140625 z M 3.3046875 10.876953 L 14.033203 14.451172 C 14.507203 24.886172 19.946969 33.377594 26.042969 38.308594 C 14.590969 32.818594 5.1066875 20.064953 3.3046875 10.876953 z M 19.349609 39.050781 C 17.439609 40.130781 15.569141 40.790938 13.869141 40.960938 C 13.369141 41.010937 13 41.439453 13 41.939453 L 13 41.970703 C 13 42.520703 13.440469 42.980469 13.980469 42.980469 L 14.029297 42.980469 C 16.959297 42.850469 19.860156 42.160781 22.660156 41.050781 C 21.530156 40.450781 20.429609 39.770781 19.349609 39.050781 z"/></svg>